HIERARCHY
ROOT Hips
{
	OFFSET 0.000000 0.000000 0.000000
	CHANNELS 6 Xposition Yposition Zposition Zrotation Yrotation Xrotation 
	JOINT LHipJoint
	{
		OFFSET 0.000000 0.000000 0.000000
		CHANNELS 3 Zrotation Yrotation Xrotation
		JOINT LeftUpLeg
		{
			OFFSET 1.363060 -1.794630 0.839290
			CHANNELS 3 Zrotation Yrotation Xrotation
			JOINT LeftLeg
			{
				OFFSET 2.448110 -6.726130 0.000000
				CHANNELS 3 Zrotation Yrotation Xrotation
				JOINT LeftFoot
				{
					OFFSET 2.562200 -7.039590 0.000000
					CHANNELS 3 Zrotation Yrotation Xrotation
					JOINT LeftToeBase
					{
						OFFSET 0.157640 -0.433110 2.322550
						CHANNELS 3 Zrotation Yrotation Xrotation
						End Site
						{
							OFFSET 0.000000 0.000000 0.000000
						}
					}
				}
			}
		}
	}
	JOINT RHipJoint
	{
		OFFSET 0.000000 0.000000 0.000000
		CHANNELS 3 Zrotation Yrotation Xrotation
		JOINT RightUpLeg
		{
			OFFSET -1.305520 -1.794630 0.839290
			CHANNELS 3 Zrotation Yrotation Xrotation
			JOINT RightLeg
			{
				OFFSET -2.542530 -6.985550 0.000000
				CHANNELS 3 Zrotation Yrotation Xrotation
				JOINT RightFoot
				{
					OFFSET -2.568260 -7.056230 0.000000
					CHANNELS 3 Zrotation Yrotation Xrotation
					JOINT RightToeBase
					{
						OFFSET -0.164730 -0.452590 2.363150
						CHANNELS 3 Zrotation Yrotation Xrotation
						End Site
						{
							OFFSET 0.000000 0.000000 0.000000
						}
					}
				}
			}
		}
	}
	JOINT LowerBack
	{
		OFFSET 0.000000 0.000000 0.000000
		CHANNELS 3 Zrotation Yrotation Xrotation
		JOINT Spine
		{
			OFFSET 0.028270 2.035590 -0.193380
			CHANNELS 3 Zrotation Yrotation Xrotation
			JOINT Spine1
			{
				OFFSET 0.056720 2.048850 -0.042750
				CHANNELS 3 Zrotation Yrotation Xrotation
				JOINT Neck
				{
					OFFSET 0.000000 0.000000 0.000000
					CHANNELS 3 Zrotation Yrotation Xrotation
					JOINT Neck1
					{
						OFFSET -0.054170 1.746240 0.172020
						CHANNELS 3 Zrotation Yrotation Xrotation
						JOINT Head
						{
							OFFSET 0.104070 1.761360 -0.123970
							CHANNELS 3 Zrotation Yrotation Xrotation
							End Site
							{
								OFFSET 0.000000 0.000000 0.000000
							}
						}
					}
				}
				JOINT LeftShoulder
				{
					OFFSET 0.000000 0.000000 0.000000
					CHANNELS 3 Zrotation Yrotation Xrotation
					JOINT LeftArm
					{
						OFFSET 3.362410 1.200890 -0.311210
						CHANNELS 3 Zrotation Yrotation Xrotation
						JOINT LeftForeArm
						{
							OFFSET 4.983000 -0.000000 -0.000000
							CHANNELS 3 Zrotation Yrotation Xrotation
							JOINT LeftHand
							{
								OFFSET 3.483560 -0.000000 -0.000000
								CHANNELS 3 Zrotation Yrotation Xrotation
								JOINT LeftFingerBase
								{
									OFFSET 0.000000 0.000000 0.000000
									CHANNELS 3 Zrotation Yrotation Xrotation
									JOINT LeftHandIndex1
									{
										OFFSET 0.715260 -0.000000 -0.000000
										CHANNELS 3 Zrotation Yrotation Xrotation
										End Site
										{
											OFFSET 0.000000 0.000000 0.000000
										}
									}
								}
								JOINT LThumb
								{
									OFFSET 0.000000 0.000000 0.000000
									CHANNELS 3 Zrotation Yrotation Xrotation
									End Site
									{
										OFFSET 0.000000 0.000000 0.000000
									}
								}
							}
						}
					}
				}
				JOINT RightShoulder
				{
					OFFSET 0.000000 0.000000 0.000000
					CHANNELS 3 Zrotation Yrotation Xrotation
					JOINT RightArm
					{
						OFFSET -3.136600 1.374050 -0.404650
						CHANNELS 3 Zrotation Yrotation Xrotation
						JOINT RightForeArm
						{
							OFFSET -5.241900 -0.000000 -0.000000
							CHANNELS 3 Zrotation Yrotation Xrotation
							JOINT RightHand
							{
								OFFSET -3.444170 -0.000000 -0.000000
								CHANNELS 3 Zrotation Yrotation Xrotation
								JOINT RightFingerBase
								{
									OFFSET 0.000000 0.000000 0.000000
									CHANNELS 3 Zrotation Yrotation Xrotation
									JOINT RightHandIndex1
									{
										OFFSET -0.622530 -0.000000 -0.000000
										CHANNELS 3 Zrotation Yrotation Xrotation
										End Site
										{
											OFFSET 0.000000 0.000000 0.000000
										}
									}
								}
								JOINT RThumb
								{
									OFFSET 0.000000 0.000000 0.000000
									CHANNELS 3 Zrotation Yrotation Xrotation
									End Site
									{
										OFFSET 0.000000 0.000000 0.000000
									}
								}
							}
						}
					}
				}
			}
		}
	}
}
MOTION
Frames: 12
Frame Time: 0.008333
-8.360531 18.207903 -5.004596 -178.954449 8.958341 -173.616186 -1.021692 -5.000713 -3.383964 -15.291498 -1.023364 -23.248001 -1.604553 10.612053 25.242251 2.897716 -4.061224 13.093451 0.214300 -2.980200 -8.223600 -0.829695 3.610180 -2.696337 19.002540 2.639474 -4.112468 -4.896281 -16.894601 49.534880 -3.916268 9.779033 28.669376 -1.421200 7.539000 -21.322400 1.089824 3.676991 2.676496 0.189896 5.470016 -4.023444 0.752316 2.909430 -13.653613 -24.499939 -7.365836 13.734131 8.982638 -22.833755 6.232816 20.839900 -12.775600 2.147800 -9.319850 -8.250751 1.480126 -81.276368 20.526887 25.542188 14.047282 -20.651561 -3.489227 -0.262173 -0.254142 -35.724362 12.613815 -8.603074 -1.959000 -7.125000 0.000000 0.000000 -10.022000 21.275200 5.790000 5.572097 5.148494 0.460201 77.515808 -10.163469 14.275197 -7.049409 16.006806 -1.735178 -0.181571 0.633675 32.331911 -2.744250 1.267070 -0.032600 7.125000 0.000000 0.000000 18.732600 -28.888500 7.734200 
-8.373445 18.209779 -5.157364 -179.381994 9.190792 -173.874296 -1.047645 -4.940149 -3.231241 -15.961234 -0.623850 -22.742784 -1.612238 10.584183 25.204382 2.924179 -4.275647 12.596869 0.207700 -2.934400 -8.096300 -0.904241 3.647287 -2.835083 18.532198 2.830146 -5.369606 -5.577163 -17.400647 51.435703 -3.622064 9.071777 26.130193 -1.478800 7.683700 -21.757300 0.609027 3.617745 3.033955 0.178835 5.373070 -4.001130 0.933844 2.893890 -13.727686 -24.588820 -7.341982 13.568156 8.979842 -22.714698 6.208516 20.834900 -12.689800 2.133900 -9.327920 -8.271891 1.489536 -81.163325 20.296156 26.012586 14.207238 -20.826267 -3.550862 -0.265262 -0.259101 -35.878776 12.733957 -8.592740 -1.975900 -7.125000 0.000000 0.000000 -9.932400 21.282200 5.735100 5.596995 5.180259 0.473912 77.237142 -10.229119 14.765120 -7.084125 16.075104 -1.747095 -0.185957 0.641713 32.166230 -2.697378 1.291643 -0.032500 7.125000 0.000000 0.000000 18.769300 -28.869400 7.760000 
-8.385808 18.208455 -5.307925 -179.838200 9.367842 -174.139349 -1.067943 -4.883944 -3.085858 -16.659508 -0.238566 -22.248560 -1.619003 10.564922 25.177984 2.964748 -4.543806 12.102377 0.202200 -2.895700 -7.988600 -0.973426 3.686317 -2.966949 18.031581 2.967555 -6.667091 -6.234873 -17.858721 53.223605 -3.343615 8.356564 23.630064 -1.511100 7.763300 -21.997400 0.105044 3.540401 3.389850 0.167047 5.250684 -3.977880 1.115738 2.867497 -13.796716 -24.675342 -7.313628 13.403788 8.983073 -22.596382 6.182804 20.837800 -12.605800 2.119700 -9.337876 -8.293466 1.500913 -81.016489 20.043654 26.524653 14.371608 -21.006513 -3.614896 -0.272844 -0.264943 -35.965671 12.918501 -8.548615 -1.995900 -7.125000 0.000000 0.000000 -9.794900 21.318900 5.645100 5.620818 5.213197 0.487997 76.964591 -10.278302 15.263691 -7.132117 16.157798 -1.761519 -0.186139 0.644462 31.949432 -2.768997 1.294978 -0.033600 7.125000 0.000000 0.000000 18.716000 -28.871900 7.734500 
-8.397177 18.204481 -5.456278 179.690262 9.480150 -174.392725 -1.082112 -4.833787 -2.950888 -17.371685 0.121536 -21.778410 -1.623710 10.555020 25.166338 3.017901 -4.859963 11.617649 0.200100 -2.880100 -7.945100 -1.036733 3.728189 -3.090828 17.511796 3.065105 -8.008239 -6.852627 -18.267101 54.872821 -3.093020 7.698633 21.233573 -1.516000 7.775400 -22.033800 -0.412945 3.443573 3.735332 0.155112 5.102347 -3.957738 1.295517 2.829964 -13.870502 -24.757389 -7.281399 13.246431 8.991265 -22.480997 6.157925 20.846800 -12.526400 2.107000 -9.351525 -8.316766 1.513588 -80.830106 19.765703 27.036448 14.515506 -21.164764 -3.672013 -0.278909 -0.265745 -35.983271 13.089405 -8.546889 -2.023600 -7.125000 0.000000 0.000000 -9.668300 21.310500 5.571800 5.644174 5.248109 0.501403 76.706832 -10.306260 15.724680 -7.184066 16.240309 -1.775412 -0.181932 0.641567 31.724752 -2.951021 1.275827 -0.035500 7.125000 0.000000 0.000000 18.578600 -28.896200 7.660400 
-8.407553 18.198631 -5.602865 179.246477 9.526278 -174.614917 -1.089360 -4.790392 -2.829892 -18.050922 0.442797 -21.340163 -1.622275 10.557350 25.182170 3.079786 -5.208458 11.143498 0.199500 -2.876000 -7.933700 -1.095115 3.773579 -3.206676 17.021319 3.143767 -9.385540 -7.413266 -18.626785 56.349614 -2.873346 7.103365 18.996654 -1.503000 7.743400 -21.937400 -0.897019 3.330429 4.049173 0.146038 4.933279 -3.940584 1.463517 2.779995 -13.939316 -24.832497 -7.246118 13.106345 9.004686 -22.370304 6.130456 20.865300 -12.451200 2.089500 -9.368106 -8.340000 1.527950 -80.608829 19.456336 27.520020 14.624740 -21.285378 -3.717008 -0.278595 -0.256884 -35.942096 13.189009 -8.654914 -2.065600 -7.125000 0.000000 0.000000 -9.596100 21.190300 5.555500 5.667293 5.282165 0.513529 76.465443 -10.329914 16.147366 -7.245366 16.332540 -1.791193 -0.173370 0.633682 31.485275 -3.241393 1.233120 -0.037800 7.125000 0.000000 0.000000 18.359100 -28.943800 7.538600 
-8.416715 18.191566 -5.747134 178.863187 9.501243 -174.780734 -1.089121 -4.755718 -2.726837 -18.656267 0.715275 -20.954938 -1.611216 10.575047 25.239424 3.150353 -5.586264 10.680926 0.199300 -2.874900 -7.930800 -1.149240 3.823990 -3.314500 16.598932 3.220066 -10.809899 -7.904740 -18.941626 57.629559 -2.681818 6.556967 16.961629 -1.481800 7.691200 -21.779900 -1.315178 3.202777 4.318022 0.141952 4.747781 -3.928093 1.613535 2.717486 -13.998757 -24.890870 -7.215004 12.971698 9.017189 -22.264817 6.105368 20.881000 -12.380400 2.071800 -9.386541 -8.364884 1.543676 -80.354081 19.108524 27.957295 14.703575 -21.372451 -3.751117 -0.272368 -0.241253 -35.869274 13.215588 -8.843194 -2.114500 -7.125000 0.000000 0.000000 -9.579400 20.990000 5.589600 5.690642 5.315230 0.523638 76.246037 -10.344806 16.513037 -7.313271 16.429977 -1.808014 -0.160243 0.619808 31.255143 -3.650530 1.170445 -0.040400 7.125000 0.000000 0.000000 18.047800 -29.010600 7.367900 
-8.424662 18.184502 -5.890630 178.604137 9.398744 -174.882566 -1.082358 -4.728071 -2.641749 -19.122562 0.931144 -20.612925 -1.585451 10.610192 25.353835 3.227150 -5.979425 10.221181 0.198400 -2.868000 -7.911500 -1.201481 3.877852 -3.414398 16.316499 3.295848 -12.254146 -8.312997 -19.215108 58.683623 -2.513618 6.048149 15.133192 -1.464800 7.648900 -21.652600 -1.597521 3.060313 4.530320 0.148979 4.545981 -3.918375 1.737592 2.636907 -14.033882 -24.935180 -7.188003 12.840067 9.027178 -22.166230 6.086081 20.894200 -12.315400 2.057000 -9.405505 -8.393304 1.560860 -80.077933 18.709407 28.357860 14.745445 -21.417451 -3.771213 -0.262024 -0.216940 -35.800578 13.187970 -9.134527 -2.178800 -7.125000 0.000000 0.000000 -9.603700 20.683200 5.671700 5.715224 5.343553 0.531184 76.043987 -10.347307 16.810728 -7.386336 16.532333 -1.826230 -0.143465 0.601315 31.026705 -4.151000 1.092496 -0.042300 7.125000 0.000000 0.000000 17.665200 -29.092000 7.160900 
-8.431837 18.177658 -6.034568 178.481199 9.227725 -174.919561 -1.070104 -4.706292 -2.572967 -19.438521 1.101410 -20.312643 -1.543084 10.664187 25.532613 3.310780 -6.386958 9.755438 0.196200 -2.852200 -7.867500 -1.252197 3.934053 -3.507111 16.183801 3.370952 -13.704112 -8.630964 -19.448978 59.498274 -2.366294 5.576380 13.529783 -1.448400 7.607600 -21.528500 -1.726718 2.906156 4.674323 0.167684 4.333416 -3.909394 1.831706 2.539238 -14.032647 -24.967407 -7.165204 12.710446 9.033102 -22.074266 6.073847 20.905200 -12.255800 2.045200 -9.423994 -8.424820 1.579833 -79.788128 18.252581 28.743396 14.756148 -21.425184 -3.778115 -0.256087 -0.191690 -35.684778 13.199093 -9.398315 -2.244000 -7.125000 0.000000 0.000000 -9.599500 20.399200 5.731400 5.739967 5.364825 0.535872 75.860352 -10.347828 17.045147 -7.471211 16.650986 -1.848855 -0.123769 0.580293 30.786253 -4.718027 0.996138 -0.042300 7.125000 0.000000 0.000000 17.231000 -29.191700 6.926100 
-8.437908 18.171367 -6.178836 178.500566 8.992958 -174.897915 -1.054073 -4.689172 -2.517932 -19.594429 1.239023 -20.049813 -1.484685 10.733320 25.769255 3.402726 -6.810031 9.287382 0.191600 -2.818900 -7.774900 -1.301834 3.991587 -3.593725 16.210760 3.447964 -15.148129 -8.856607 -19.646645 60.070680 -2.235740 5.135562 12.135046 -1.439000 7.584000 -21.457500 -1.698198 2.742402 4.758726 0.199025 4.112101 -3.899420 1.898492 2.424858 -13.991025 -24.986284 -7.148095 12.572634 9.036196 -21.991727 6.068864 20.912200 -12.202500 2.040600 -9.440606 -8.460765 1.600826 -79.487122 17.741636 29.136019 14.756434 -21.418632 -3.779729 -0.257108 -0.169908 -35.544559 13.279361 -9.586409 -2.304900 -7.125000 0.000000 0.000000 -9.543800 20.187100 5.743300 5.765018 5.379102 0.538305 75.692632 -10.333243 17.211019 -7.564151 16.779763 -1.874734 -0.101737 0.556881 30.527340 -5.340349 0.888670 -0.040000 7.125000 0.000000 0.000000 16.752500 -29.302500 6.671300 
-8.443096 18.165627 -6.323878 178.632945 8.708563 -174.838783 -1.036730 -4.673609 -2.470957 -19.622374 1.354169 -19.803392 -1.413845 10.812032 26.046161 3.500688 -7.240126 8.810894 0.185500 -2.773700 -7.649400 -1.349601 4.048108 -3.674890 16.362493 3.522071 -16.566824 -8.994150 -19.808644 60.412033 -2.121091 4.731913 10.923045 -1.431900 7.566200 -21.404000 -1.546841 2.572047 4.804140 0.240843 3.885036 -3.889518 1.946246 2.298704 -13.926454 -24.998042 -7.133681 12.432726 9.034573 -21.915538 6.074650 20.914200 -12.156100 2.045000 -9.456296 -8.501557 1.623281 -79.176864 17.182568 29.542243 14.738880 -21.388917 -3.772236 -0.265947 -0.152065 -35.392598 13.426377 -9.686099 -2.358800 -7.125000 0.000000 0.000000 -9.437600 20.059600 5.705100 5.790276 5.388138 0.537903 75.541903 -10.315845 17.303313 -7.665290 16.918591 -1.904341 -0.077921 0.532457 30.242396 -5.995605 0.768470 -0.034300 7.125000 0.000000 0.000000 16.247300 -29.426400 6.404200 
-8.447401 18.160108 -6.469913 178.821616 8.363132 -174.773361 -1.021804 -4.677036 -2.434075 -19.580546 1.464619 -19.545625 -1.333375 10.889457 26.343047 3.603726 -7.682714 8.321321 0.178200 -2.719200 -7.498000 -1.395718 4.081616 -3.742751 16.577655 3.591908 -17.950130 -9.051189 -19.940710 60.541989 -2.023227 4.371503 9.863573 -1.430800 7.563200 -21.395100 -1.340352 2.471665 4.820742 0.276467 3.726648 -3.885466 1.990335 2.246824 -14.001899 -26.276726 -10.607146 12.423478 8.683507 -19.751293 7.516722 20.752700 -9.955500 2.895300 -9.541279 -8.799957 1.796895 -78.888153 16.660146 29.940438 14.730803 -21.348540 -3.765245 -0.277992 -0.134749 -35.248625 13.614873 -9.748543 -2.412700 -7.125000 0.000000 0.000000 -9.301200 19.965700 5.640300 5.774398 5.181955 0.571926 75.410861 -10.424140 17.349081 -7.783628 17.073033 -1.939362 -0.053887 0.507007 29.885430 -6.680527 0.642899 -0.025500 7.125000 0.000000 0.000000 15.717000 -29.555400 6.129500 
-8.450823 18.153595 -6.616058 179.005206 8.035532 -174.716756 -1.007197 -4.658251 -2.388338 -19.535200 1.578527 -19.283944 -1.254700 10.968995 26.629801 3.709054 -8.123451 7.824845 0.171800 -2.669900 -7.361200 -1.435385 4.133305 -3.818609 16.785532 3.663946 -19.276007 -9.043931 -20.031211 60.492851 -1.943301 4.066227 8.912602 -1.434800 7.573400 -21.425600 -1.142703 2.298040 4.845306 0.325808 3.495540 -3.872473 2.044248 2.117234 -13.915959 -26.273524 -10.580102 12.284640 8.679522 -19.699265 7.534208 20.748600 -9.930400 2.913100 -9.554387 -8.844144 1.820815 -78.573045 16.063262 30.357226 14.712002 -21.316151 -3.756353 -0.293309 -0.121432 -35.117833 13.816501 -9.770573 -2.460100 -7.125000 0.000000 0.000000 -9.153400 19.913300 5.559200 5.797946 5.186065 0.568556 75.286335 -10.409246 17.336878 -7.896406 17.223388 -1.974422 -0.027638 0.481220 29.474827 -7.381093 0.518697 -0.013800 7.125000 0.000000 0.000000 15.170500 -29.684400 5.853400 
